.
..............................Site Info...........................

 -   http://www.scenetime.com  *_*   

Scenetime .Always on time . friendly online private torrent community ..

     We care to share . Join us on  http://www.scenetime.com 

    Be the first to get new release at  http://www.scenetime.com

        Seed back for speed


...................................NFO:.................................................[img]http://lookpic.com/O/i2/1303/O2fcDblL.jpeg[/img]


[color=green][size=3]General Info[/size][/color]
ENCODER     : Kobe
Source Video: Bd Disk
Source Audio: Bd Disk
Channel     : 6 channels 
IMDB        : http://www.imdb.com/title/tt1714209/
subs        : Yes: Soft sub, not hardcoded.



[color=green][size=3]Video[/size][/color]
ID                                       : 0
Format                                   : MPEG-4 Visual
Format profile                           : Advanced Simple@L5
Format settings, BVOP                    : 2
Format settings, QPel                    : No
Format settings, GMC                     : No warppoints
Format settings, Matrix                  : Default (H.263)
Muxing mode                              : Packed bitstream
Codec ID                                 : XVID
Codec ID/Hint                            : XviD
Duration                                 : 2h 6mn
Bit rate                                 : 2 328 Kbps
Width                                    : 720 pixels
Height                                   : 304 pixels
Display aspect ratio                     : 2.35:1
Frame rate                               : 19.181 fps
Color space                              : YUV
Chroma subsampling                       : 4:2:0
Bit depth                                : 8 bits
Scan type                                : Progressive
Compression mode                         : Lossy
Bits/(Pixel*Frame)                       : 0.554
Stream size                              : 2.06 GiB (78%)
Writing library                          : XviD 64

[color=green][size=3]Audio[/size][/color]
ID                                       : 1
Format                                   : AC-3
Format/Info                              : Audio Coding 3
Mode extension                           : CM (complete main)
Codec ID                                 : 2000
Duration                                 : 2h 6mn
Bit rate mode                            : Constant
Bit rate                                 : 640 Kbps
Channel(s)                               : 6 channels
Channel positions                        : Front: L C R, Side: L R, LFE
Sampling rate                            : 48.0 KHz
Bit depth                                : 16 bits
Compression mode                         : Lossy
Stream size                              : 580 MiB (22%)
Alignment                                : Split accross interleaves
Interleave, duration                     : 52 ms (1.00 video frame)
Interleave, preload duration             : 500 ms




NOTE: 
Straight up encode from the bd disk Enjoy. 


 

[color=Green][size=3]Greetz[/size][/color]
unevano,Mr.hive :rock: R3dRuM,rfcgazza,Killerhz,cooperman,ANALOG,26K,Inspiral,HOPE,Toffee :rock:, KoDeKinG :P 

[img]http://i1134.photobucket.com/albums/m609/andy1andrew/blood2.png[/img]
[img]http://i1134.photobucket.com/albums/m609/andy1andrew/blood1.png[/img]
[img]http://i1134.photobucket.com/albums/m609/andy1andrew/blood3.png[/img]



[img]http://i1134.photobucket.com/albums/m609/andy1andrew/KodeKing.jpg[/img]